<svg height="400" viewBox="0 0 360 400" width="360" xmlns="http://www.w3.org/2000/svg">
<defs>
<marker id="arrow-forward" markerHeight="8" markerWidth="8" orient="auto-start-reverse" refX="10" refY="5" viewBox="0 0 10 10">
<path d="M0,0 L10,5 L0,10" fill="#555555"/>
</marker>
<marker id="arrow-backward" markerHeight="8" markerWidth="8" orient="auto-start-reverse" refX="0" refY="5" viewBox="0 0 10 10">
<path d="M10,0 L0,5 L10,10" fill="#555555"/>
</marker>
</defs>
<rect fill="#fafafa" height="100%" width="100%"/>
<path d="M180,80 L180,95 L180,95 L180,110" fill="none" stroke="#555555" stroke-width="1.5"/>
<path d="M180,220 L180,235 L130,235 L130,250" fill="none" stroke="#555555" stroke-width="1.5"/>
<path d="M180,80 L180,95 L80,95 L80,110" fill="none" stroke="#555555" stroke-width="1.5"/>
<path d="M180,220 L180,235 L230,235 L230,250" fill="none" stroke="#555555" stroke-width="1.5"/>
<path d="M230,290 L230,305 L230,305 L230,320" fill="none" stroke="#555555" stroke-width="1.5"/>
<path d="M180,150 L180,165 L180,165 L180,180" fill="none" stroke="#555555" stroke-width="1.5"/>
<path d="M180,80 L180,95 L280,95 L280,110" fill="none" stroke="#555555" stroke-width="1.5"/>
<line marker-end="url(#arrow-forward)" stroke="#555555" stroke-width="1.5" x1="158.57142857142856" x2="201.42857142857144" y1="290" y2="320"/>
<text fill="#333333" font-family="system-ui, -apple-system, sans-serif" font-size="11.9" text-anchor="middle" x="180" y="299">
有关系
</text>
<rect fill="#ffffff" height="40" rx="6" ry="6" stroke="#333333" stroke-width="1.5" width="80" x="90" y="250"/>
<g>
<text fill="#333333" font-family="system-ui, -apple-system, sans-serif" font-size="14" text-anchor="middle" x="130" y="274.6666666666667">
老员工
</text>
</g>
<rect fill="#ffffff" height="40" rx="6" ry="6" stroke="#333333" stroke-width="1.5" width="80" x="140" y="110"/>
<g>
<text fill="#333333" font-family="system-ui, -apple-system, sans-serif" font-size="14" text-anchor="middle" x="180" y="134.66666666666666">
部门
</text>
</g>
<rect fill="#ffffff" height="40" rx="6" ry="6" stroke="#333333" stroke-width="1.5" width="80" x="140" y="180"/>
<g>
<text fill="#333333" font-family="system-ui, -apple-system, sans-serif" font-size="14" text-anchor="middle" x="180" y="204.66666666666666">
组长
</text>
</g>
<rect fill="#ffffff" height="40" rx="6" ry="6" stroke="#333333" stroke-width="1.5" width="80" x="140" y="40"/>
<g>
<text fill="#333333" font-family="system-ui, -apple-system, sans-serif" font-size="14" text-anchor="middle" x="180" y="64.66666666666667">
a
</text>
</g>
<rect fill="#ffffff" height="40" rx="6" ry="6" stroke="#333333" stroke-width="1.5" width="80" x="190" y="250"/>
<g>
<text fill="#333333" font-family="system-ui, -apple-system, sans-serif" font-size="14" text-anchor="middle" x="230" y="274.6666666666667">
导师
</text>
</g>
<rect fill="#ffffff" height="40" rx="6" ry="6" stroke="#333333" stroke-width="1.5" width="80" x="240" y="110"/>
<g>
<text fill="#333333" font-family="system-ui, -apple-system, sans-serif" font-size="14" text-anchor="middle" x="280" y="134.66666666666666">
g
</text>
</g>
<rect fill="#ffffff" height="40" rx="6" ry="6" stroke="#333333" stroke-width="1.5" width="80" x="40" y="110"/>
<g>
<text fill="#333333" font-family="system-ui, -apple-system, sans-serif" font-size="14" text-anchor="middle" x="80" y="134.66666666666666">
b
</text>
</g>
<rect fill="#ffffff" height="40" rx="6" ry="6" stroke="#333333" stroke-width="1.5" width="80" x="190" y="320"/>
<g>
<text fill="#333333" font-family="system-ui, -apple-system, sans-serif" font-size="14" text-anchor="middle" x="230" y="344.6666666666667">
新员工
</text>
</g>
</svg>