<svg height="260" viewBox="0 0 460 260" width="460" xmlns="http://www.w3.org/2000/svg">
<defs>
<marker id="arrow-forward" markerHeight="8" markerWidth="8" orient="auto-start-reverse" refX="10" refY="5" viewBox="0 0 10 10">
<path d="M0,0 L10,5 L0,10" fill="#555555"/>
</marker>
<marker id="arrow-backward" markerHeight="8" markerWidth="8" orient="auto-start-reverse" refX="0" refY="5" viewBox="0 0 10 10">
<path d="M10,0 L0,5 L10,10" fill="#555555"/>
</marker>
</defs>
<rect fill="#fafafa" height="100%" width="100%"/>
<line marker-end="url(#arrow-forward)" stroke="#555555" stroke-width="1.5" x1="120" x2="140" y1="116" y2="109"/>
<line marker-end="url(#arrow-forward)" stroke="#555555" stroke-width="1.5" x1="220" x2="240" y1="109" y2="116"/>
<line marker-end="url(#arrow-forward)" stroke="#555555" stroke-width="1.5" x1="320" x2="340" y1="130" y2="130"/>
<line marker-end="url(#arrow-forward)" stroke="#555555" stroke-width="1.5" x1="220" x2="240" y1="81" y2="74"/>
<line marker-end="url(#arrow-forward)" stroke="#555555" stroke-width="1.5" x1="108.57142857142857" x2="151.42857142857144" y1="150" y2="180"/>
<line marker-end="url(#arrow-forward)" stroke="#555555" stroke-width="1.5" x1="340" x2="220" y1="144" y2="186"/>
<text fill="#333333" font-family="system-ui, -apple-system, sans-serif" font-size="11.9" text-anchor="middle" x="280" y="159">
心跳同步
</text>
<rect fill="#ffffff" height="40" rx="6" ry="6" stroke="#333333" stroke-width="1.5" width="80" x="40" y="110"/>
<g>
<text fill="#333333" font-family="system-ui, -apple-system, sans-serif" font-size="14" text-anchor="middle" x="80" y="134.66666666666666">
a
</text>
</g>
<rect fill="#ffffff" height="40" rx="6" ry="6" stroke="#333333" stroke-width="1.5" width="80" x="140" y="180"/>
<g>
<text fill="#333333" font-family="system-ui, -apple-system, sans-serif" font-size="14" text-anchor="middle" x="180" y="204.66666666666666">
f
</text>
</g>
<rect fill="#ffffff" height="40" rx="6" ry="6" stroke="#333333" stroke-width="1.5" width="80" x="140" y="75"/>
<g>
<text fill="#333333" font-family="system-ui, -apple-system, sans-serif" font-size="14" text-anchor="middle" x="180" y="99.66666666666667">
b
</text>
</g>
<rect fill="#ffffff" height="40" rx="6" ry="6" stroke="#333333" stroke-width="1.5" width="80" x="240" y="40"/>
<g>
<text fill="#333333" font-family="system-ui, -apple-system, sans-serif" font-size="14" text-anchor="middle" x="280" y="64.66666666666667">
e
</text>
</g>
<rect fill="#ffffff" height="40" rx="6" ry="6" stroke="#333333" stroke-width="1.5" width="80" x="240" y="110"/>
<g>
<text fill="#333333" font-family="system-ui, -apple-system, sans-serif" font-size="14" text-anchor="middle" x="280" y="134.66666666666666">
c
</text>
</g>
<rect fill="#ffffff" height="40" rx="6" ry="6" stroke="#333333" stroke-width="1.5" width="80" x="340" y="110"/>
<g>
<text fill="#333333" font-family="system-ui, -apple-system, sans-serif" font-size="14" text-anchor="middle" x="380" y="134.66666666666666">
d
</text>
</g>
</svg>